<svg version="1.1" id="Layer_1" xmlns="http://www.w3.org/2000/svg" xmlns:xlink="http://www.w3.org/1999/xlink" x="0px" y="0px"
	 width="100%" viewBox="0 0 112 111" enable-background="new 0 0 112 111" xml:space="preserve">
<path fill="#522CD4" opacity="1.000000" stroke="none" 
	d="
M59.000000,112.000000 
	C39.333332,112.000000 20.166666,112.000000 1.000000,112.000000 
	C1.000000,75.000000 1.000000,38.000000 1.000000,1.000000 
	C38.333332,1.000000 75.666664,1.000000 113.000000,1.000000 
	C113.000000,38.000000 113.000000,75.000000 113.000000,112.000000 
	C95.166664,112.000000 77.333336,112.000000 59.000000,112.000000 
M20.179970,92.234741 
	C28.633539,93.009827 34.996559,89.224167 40.019535,82.864403 
	C45.655106,75.729012 48.586376,67.476532 48.967800,58.431160 
	C49.458340,46.798145 49.692661,35.154175 50.012814,23.514250 
	C50.074062,21.287365 50.021603,19.057350 50.021603,16.828779 
	C49.400330,16.739569 48.779057,16.650358 48.157784,16.561150 
	C47.098240,21.959301 45.445999,27.320351 45.105244,32.763500 
	C44.440842,43.376553 45.062786,54.084560 44.124371,64.662071 
	C43.141121,75.744987 33.006695,83.209816 21.896029,82.045868 
	C17.108015,81.544266 13.448115,79.016312 12.941443,74.135353 
	C12.543320,70.300072 13.436707,66.309242 13.942346,62.411633 
	C14.161077,60.725571 14.847978,59.100243 15.322216,57.447327 
	C14.845813,57.323692 14.369410,57.200054 13.893005,57.076416 
	C9.751076,64.376022 7.273920,72.118744 8.924516,80.795982 
	C10.043702,86.679588 13.320250,90.750259 20.179970,92.234741 
M50.105732,80.655396 
	C48.656532,82.197334 47.207333,83.739265 45.042255,86.042892 
	C56.940701,84.285652 57.095779,84.170555 61.435429,74.705017 
	C66.514275,81.911530 71.350433,82.941315 77.367210,78.015526 
	C78.645836,76.968742 79.573570,75.444115 80.937248,74.565193 
	C82.147804,73.784958 83.715286,73.486267 85.167610,73.169312 
	C87.726875,72.610771 90.945267,72.998009 92.768753,71.565216 
	C96.830734,68.373543 100.453751,66.047577 104.851830,70.406181 
	C111.960083,61.285397 111.917580,58.000435 104.965317,53.423668 
	C103.540276,55.191242 102.195801,57.037029 100.663040,58.710339 
	C99.108582,60.407341 97.158844,61.771152 95.757263,63.572678 
	C93.550240,66.409470 91.115135,67.727844 87.597031,66.142769 
	C84.573792,64.780647 82.260422,65.724365 80.177063,68.217926 
	C79.158150,69.437469 77.652084,70.411362 76.174637,71.058090 
	C70.239143,73.656265 66.880592,71.636971 66.350449,65.294746 
	C66.155441,62.961830 66.030479,60.623062 65.873573,58.286964 
	C63.328873,62.322094 62.102116,66.713882 59.708527,70.334221 
	C57.279762,74.007767 53.698997,76.919662 50.105732,80.655396 
M66.994202,96.056816 
	C69.338623,94.195778 71.683052,92.334740 74.455612,90.133850 
	C71.657616,88.070518 69.853065,86.739784 67.808792,85.232277 
	C65.787643,87.634018 64.033165,89.718872 62.021950,92.108818 
	C63.704788,93.491035 65.068054,94.610779 66.994202,96.056816 
z"/>
<path fill="#F7F5FD" opacity="1.000000" stroke="none" 
	d="
M19.794838,92.179665 
	C13.320250,90.750259 10.043702,86.679588 8.924516,80.795982 
	C7.273920,72.118744 9.751076,64.376022 13.893005,57.076416 
	C14.369410,57.200054 14.845813,57.323692 15.322216,57.447327 
	C14.847978,59.100243 14.161077,60.725571 13.942346,62.411633 
	C13.436707,66.309242 12.543320,70.300072 12.941443,74.135353 
	C13.448115,79.016312 17.108015,81.544266 21.896029,82.045868 
	C33.006695,83.209816 43.141121,75.744987 44.124371,64.662071 
	C45.062786,54.084560 44.440842,43.376553 45.105244,32.763500 
	C45.445999,27.320351 47.098240,21.959301 48.157784,16.561150 
	C48.779057,16.650358 49.400330,16.739569 50.021603,16.828779 
	C50.021603,19.057350 50.074062,21.287365 50.012814,23.514250 
	C49.692661,35.154175 49.458340,46.798145 48.967800,58.431160 
	C48.586376,67.476532 45.655106,75.729012 40.019535,82.864403 
	C34.996559,89.224167 28.633539,93.009827 19.794838,92.179665 
z"/>
<path fill="#F8F7FD" opacity="1.000000" stroke="none" 
	d="
M50.364250,80.410263 
	C53.698997,76.919662 57.279762,74.007767 59.708527,70.334221 
	C62.102116,66.713882 63.328873,62.322094 65.873573,58.286964 
	C66.030479,60.623062 66.155441,62.961830 66.350449,65.294746 
	C66.880592,71.636971 70.239143,73.656265 76.174637,71.058090 
	C77.652084,70.411362 79.158150,69.437469 80.177063,68.217926 
	C82.260422,65.724365 84.573792,64.780647 87.597031,66.142769 
	C91.115135,67.727844 93.550240,66.409470 95.757263,63.572678 
	C97.158844,61.771152 99.108582,60.407341 100.663040,58.710339 
	C102.195801,57.037029 103.540276,55.191242 104.965317,53.423668 
	C111.917580,58.000435 111.960083,61.285397 104.851830,70.406181 
	C100.453751,66.047577 96.830734,68.373543 92.768753,71.565216 
	C90.945267,72.998009 87.726875,72.610771 85.167610,73.169312 
	C83.715286,73.486267 82.147804,73.784958 80.937248,74.565193 
	C79.573570,75.444115 78.645836,76.968742 77.367210,78.015526 
	C71.350433,82.941315 66.514275,81.911530 61.435429,74.705017 
	C57.095779,84.170555 56.940701,84.285652 45.042255,86.042892 
	C47.207333,83.739265 48.656532,82.197334 50.364250,80.410263 
z"/>
<path fill="#F3F1FC" opacity="1.000000" stroke="none" 
	d="
M66.712769,95.893669 
	C65.068054,94.610779 63.704788,93.491035 62.021950,92.108818 
	C64.033165,89.718872 65.787643,87.634018 67.808792,85.232277 
	C69.853065,86.739784 71.657616,88.070518 74.455612,90.133850 
	C71.683052,92.334740 69.338623,94.195778 66.712769,95.893669 
z"/>
</svg>