<svg version="1.1" id="Layer_1" xmlns="http://www.w3.org/2000/svg" xmlns:xlink="http://www.w3.org/1999/xlink" x="0px" y="0px"
	 width="100%" viewBox="0 0 128 128" enable-background="new 0 0 128 128" xml:space="preserve">
<path fill="#512BD4" opacity="1.000000" stroke="none" 
	d="
M73.000000,129.000000 
	C48.666668,129.000000 24.833334,129.000000 1.000000,129.000000 
	C1.000000,86.333336 1.000000,43.666668 1.000000,1.000000 
	C43.666668,1.000000 86.333336,1.000000 129.000000,1.000000 
	C129.000000,43.666668 129.000000,86.333336 129.000000,129.000000 
	C110.500000,129.000000 92.000000,129.000000 73.000000,129.000000 
M59.622437,63.354576 
	C59.370190,65.504959 59.316456,67.701729 58.826973,69.796684 
	C57.562164,75.209976 51.350662,79.411552 45.867939,78.564629 
	C40.023895,77.661880 39.922890,73.219162 40.017574,68.704994 
	C40.020569,68.562096 39.542835,68.409119 38.627987,67.874275 
	C38.279770,70.537384 37.690502,72.933884 37.704029,75.326981 
	C37.748791,83.246017 44.259789,87.713852 50.871746,83.539909 
	C54.910049,80.990639 59.299046,76.397644 60.217922,72.026237 
	C62.390812,61.689102 62.585056,50.936054 63.579346,40.351173 
	C62.931496,40.294441 62.283649,40.237705 61.635799,40.180969 
	C58.018345,47.238075 60.295517,54.987202 59.622437,63.354576 
M80.464867,75.804901 
	C85.461555,73.839890 89.727043,69.526405 95.803444,71.029205 
	C99.747787,65.425308 99.717514,64.821175 95.476082,61.682327 
	C91.580765,64.463081 89.950348,70.882622 83.209274,68.836357 
	C82.861298,68.730728 82.311836,69.158508 81.900688,69.410561 
	C74.169281,74.150322 73.642639,73.890923 72.871887,64.975525 
	C72.862114,64.862495 72.398552,64.788696 73.071846,65.035042 
	C69.057709,70.453590 65.221054,75.632568 61.384392,80.811539 
	C61.574898,81.112839 61.765400,81.414139 61.955902,81.715439 
	C64.888565,79.761116 67.821236,77.806793 70.927559,75.736748 
	C73.166969,78.578987 76.324875,79.028809 80.464867,75.804901 
M71.248871,85.023109 
	C74.722412,88.653671 75.637001,85.117828 77.513664,82.815056 
	C76.157166,81.844955 75.046936,81.050972 73.644409,80.047943 
	C72.575470,81.733063 71.725410,83.073143 71.248871,85.023109 
z"/>
<path fill="#EDEBFA" opacity="1.000000" stroke="none" 
	d="
M59.631855,62.873383 
	C60.295517,54.987202 58.018345,47.238075 61.635799,40.180969 
	C62.283649,40.237705 62.931496,40.294441 63.579346,40.351173 
	C62.585056,50.936054 62.390812,61.689102 60.217922,72.026237 
	C59.299046,76.397644 54.910049,80.990639 50.871746,83.539909 
	C44.259789,87.713852 37.748791,83.246017 37.704029,75.326981 
	C37.690502,72.933884 38.279770,70.537384 38.627987,67.874275 
	C39.542835,68.409119 40.020569,68.562096 40.017574,68.704994 
	C39.922890,73.219162 40.023895,77.661880 45.867939,78.564629 
	C51.350662,79.411552 57.562164,75.209976 58.826973,69.796684 
	C59.316456,67.701729 59.370190,65.504959 59.631855,62.873383 
z"/>
<path fill="#EFEDFA" opacity="1.000000" stroke="none" 
	d="
M80.147842,76.042068 
	C76.324875,79.028809 73.166969,78.578987 70.927559,75.736748 
	C67.821236,77.806793 64.888565,79.761116 61.955902,81.715439 
	C61.765400,81.414139 61.574898,81.112839 61.384392,80.811539 
	C65.221054,75.632568 69.057709,70.453590 73.071846,65.035042 
	C72.398552,64.788696 72.862114,64.862495 72.871887,64.975525 
	C73.642639,73.890923 74.169281,74.150322 81.900688,69.410561 
	C82.311836,69.158508 82.861298,68.730728 83.209274,68.836357 
	C89.950348,70.882622 91.580765,64.463081 95.476082,61.682327 
	C99.717514,64.821175 99.747787,65.425308 95.803116,71.028137 
	C89.727043,69.526405 85.461555,73.839890 80.147842,76.042068 
z"/>
<path fill="#EBE8F9" opacity="1.000000" stroke="none" 
	d="
M71.062103,84.718170 
	C71.725410,83.073143 72.575470,81.733063 73.644409,80.047943 
	C75.046936,81.050972 76.157166,81.844955 77.513664,82.815056 
	C75.637001,85.117828 74.722412,88.653671 71.062103,84.718170 
z"/>
</svg>